<svg width="145" height="145" viewBox="0 0 145 145" fill="none" xmlns="http://www.w3.org/2000/svg">
<path d="M72.5 145C112.541 145 145 112.541 145 72.5C145 32.4594 112.541 0 72.5 0C32.4594 0 0 32.4594 0 72.5C0 112.541 32.4594 145 72.5 145Z" fill="#F3BA2F"/>
<path fill-rule="evenodd" clip-rule="evenodd" d="M91.3033 80.2098L102.24 91.1147L72.5105 120.812L42.8128 91.1147L53.7491 80.2098L72.5105 98.9712L91.3033 80.2098ZM72.5105 61.417L83.6039 72.5105L72.5105 83.6039L61.4485 72.5419V72.5105L63.3969 70.562L64.3397 69.6193L72.5105 61.417ZM35.1134 61.5742L46.0497 72.5105L35.1134 83.4153L24.1771 72.479L35.1134 61.5742ZM109.908 61.5742L120.844 72.5105L109.908 83.4153L98.9712 72.479L109.908 61.5742ZM72.5105 24.1771L102.208 53.8748L91.2718 64.8111L72.5105 46.0183L53.7491 64.7796L42.8128 53.8748L72.5105 24.1771Z" fill="#131415"/>
</svg>
