<svg width="26" height="26" viewBox="0 0 26 26" fill="none" xmlns="http://www.w3.org/2000/svg">
<g id="Group 36690">
<path id="Vector" d="M17.226 9.53342e-08L8.77404 4.85585e-08C3.92827 2.17404e-08 -2.17404e-08 3.92827 -4.85585e-08 8.77404L-9.53342e-08 17.226C-1.22152e-07 22.0717 3.92827 26 8.77404 26L17.226 26C22.0717 26 26 22.0717 26 17.226L26 8.77405C26 3.92827 22.0717 1.22152e-07 17.226 9.53342e-08Z" fill="white"/>
<path id="Vector_2" d="M0.269287 13.074C0.269287 6.00231 6.00206 0.269531 13.0738 0.269531C20.1456 0.269531 25.8783 6.00231 25.8783 13.074C25.8783 20.1459 20.1456 25.8785 13.0738 25.8785C6.00206 25.8785 0.269287 20.1459 0.269287 13.074Z" fill="white"/>
<path id="Vector_3" d="M13.0813 5.42139C15.6651 7.57947 18.6282 7.4463 19.4749 7.4463C19.2897 19.7192 17.8786 17.2856 13.0813 20.7269C8.28389 17.2856 6.88173 19.7192 6.69653 7.4463C7.5343 7.4463 10.4974 7.57947 13.0813 5.42139Z" stroke="#3375BB" stroke-width="2" stroke-miterlimit="10" stroke-linecap="round" stroke-linejoin="round"/>
</g>
</svg>
