<svg xmlns="http://www.w3.org/2000/svg" width="35" height="22" viewBox="0 0 35 22" fill="none">
  <g clip-path="url(#clip0_633_1868)">
    <path d="M7.16757 4.22989C12.8739 -1.35707 22.1256 -1.35707 27.8319 4.22989L28.5187 4.90229C28.804 5.18163 28.804 5.63454 28.5187 5.91389L26.1694 8.21404C26.0268 8.35371 25.7955 8.35371 25.6528 8.21404L24.7078 7.28873C20.7269 3.39114 14.2726 3.39114 10.2918 7.28873L9.27968 8.27965C9.13702 8.41933 8.90572 8.41933 8.76307 8.27965L6.41379 5.97951C6.12847 5.70016 6.12847 5.24725 6.41379 4.96791L7.16757 4.22989ZM32.6905 8.98682L34.7813 11.034C35.0667 11.3133 35.0667 11.7662 34.7813 12.0456L25.3535 21.2764C25.0682 21.5557 24.6056 21.5557 24.3203 21.2764C24.3203 21.2764 24.3203 21.2764 24.3203 21.2764L17.629 14.725C17.5576 14.6552 17.442 14.6552 17.3707 14.725C17.3707 14.725 17.3707 14.725 17.3707 14.725L10.6795 21.2764C10.3942 21.5557 9.93158 21.5557 9.64626 21.2764C9.64626 21.2764 9.64625 21.2764 9.64625 21.2764L0.218137 12.0454C-0.0671785 11.7661 -0.0671785 11.3132 0.218137 11.0338L2.30901 8.98671C2.59432 8.70736 3.05691 8.70736 3.34222 8.98671L10.0336 15.5382C10.105 15.608 10.2206 15.608 10.2919 15.5382C10.2919 15.5382 10.2919 15.5382 10.2919 15.5382L16.983 8.98671C17.2683 8.70735 17.7309 8.70734 18.0162 8.98668C18.0162 8.98669 18.0163 8.98669 18.0163 8.98669L24.7077 15.5382C24.779 15.608 24.8946 15.608 24.966 15.5382L31.6573 8.98682C31.9426 8.70748 32.4052 8.70748 32.6905 8.98682Z" fill="#3B99FC"/>
  </g>
  <defs>
    <clipPath id="clip0_633_1868">
      <rect width="35" height="21.5833" fill="white"/>
    </clipPath>
  </defs>
</svg>